<svg xmlns="http://www.w3.org/2000/svg" width="240" height="240"><path d="M111.013 10.485c-.668.804-2.786 1.757-4.707 2.117-5.852 1.098-10.697 6.726-12.824 14.898-1.002 3.85-1.959 7.177-2.128 7.393-.674.864-3.551-2.428-4.861-5.563-2.36-5.649-7.314-3.286-6.14 2.928 1.35 7.141 1.609 6.734-5.853 9.183-3.85 1.263-9.25 3.29-12 4.504l-5 2.208 5.208 2.48c13.775 6.56 20.521 22.517 15.616 36.939-2.432 7.153-11.255 15.736-18.337 17.839-10.955 3.254-20.841 1.223-28.775-5.91-5.07-4.559-9.764-12.62-8.805-15.12.292-.76.29-1.381-.003-1.381-1.022 0-7.31 14.683-9.451 22.067-4.165 14.366-3.683 40.017.981 52.264l1.078 2.831 14.744-7.716c8.109-4.244 16.586-8.782 18.838-10.085l4.094-2.368 12.039 11.253c6.621 6.19 11.964 11.344 11.872 11.454-.092.111-11.626.696-25.633 1.301-14.006.605-26.366 1.267-27.466 1.473-1.1.205-5.064.407-8.809.449-4.01.046-6.569.466-6.224 1.024.322.52 3.278 2.427 6.57 4.236 4.711 2.59 6.914 4.677 10.354 9.804 14.646 21.833 36.494 35.945 62.025 40.064 10.161 1.639 29.977.721 39.084-1.812 19.343-5.378 34.449-14.898 46.423-29.254 4.34-5.204 4.796-5.479 8.088-4.877 4.509.825 12.918 3.202 20.489 5.791 6.373 2.179 11.036 2.661 11.919 1.232.295-.477 2.288-1.148 4.429-1.491 4.682-.748 6.592-2.752 5.765-6.046-.498-1.985-.013-2.803 2.638-4.447 3.568-2.213 8.531-7.365 10.528-10.931.983-1.754 1.026-3.227.184-6.354-1.008-3.742-1.312-4.018-3.78-3.434-1.475.35-5.636.901-9.246 1.225l-6.564.589.389-3.371c.501-4.337-1.237-8.871-3.4-8.871-1.855 0-9.103 4.398-16.862 10.232-7.914 5.951-8.684 5.342-5.662-4.482 2.266-7.364 2.545-10.023 2.6-24.75.054-14.31-.242-17.562-2.225-24.5-8.952-31.314-33.175-55.912-63.713-64.698-8.191-2.357-12.404-5.433-12.468-9.103-.018-.991 1.647-3.34 3.7-5.22 3.611-3.308 3.669-3.466 1.769-4.855-1.676-1.225-2.354-1.234-4.613-.066-3.367 1.741-7.758 6.928-9.687 11.442l-1.495 3.5-1.308-3c-1.992-4.57-1.663-7.117 1.384-10.715C110.315 17.432 114 12.204 114 11.126c0-1.778-1.735-2.15-2.987-.641M29.872 71.75c-1.243 1.586-1.208 1.621.378.378.962-.755 1.75-1.543 1.75-1.75 0-.823-.821-.294-2.128 1.372M24 80c-.589 1.1-.845 2-.57 2s.981-.9 1.57-2c.589-1.1.845-2 .57-2s-.981.9-1.57 2" fill="undefined" fill-rule="evenodd"/></svg>